# xmcd
#
# Track frame offsets: 
#        150
#        26303
#        42377
#        62563
#        86209
#        102022
#
# Disc length: 2026 seconds
#
# Revision: 0
# Processed by: cddbd v1.5.2PL0 Copyright (c) Steve Scherf et al.
# Submitted via: ExactAudioCopy v0.99pb4
#
DISCID=4207e806
DTITLE=Shari Puorto - Why Is The Grass Always Greener?
DYEAR=1900
DGENRE=Blues
TTITLE0=Voodoo Woman
TTITLE1=Why Is The Grass Always Greener?
TTITLE2=Good Evil Girl
TTITLE3=Angel From Montgomery
TTITLE4=I like To Get Around
TTITLE5=Leave Your Hat On
EXTD=
EXTT0=
EXTT1=
EXTT2=
EXTT3=
EXTT4=
EXTT5=
PLAYORDER=
